<svg xmlns="http://www.w3.org/2000/svg" width="1000.083" height="971.89" viewBox="0 0 1951 1896">
  <defs>
    <style>
      .cls-1 {
        fill: #f00;
        fill-rule: evenodd;
      }
    </style>
  </defs>
  <path class="cls-1" d="M1041,640l15-1c-1.34-9.574-6.28-10.836-7-22,8.61-6.591,5.68-13.558,10-25l23,6q0.495,7.5,1,15a13.775,13.775,0,0,0,11-1c5.98-21.856-3.19-29.239-26-29v-3l3-2c8.37-5.506,21.52-5.613,28-13q-1.005-7.5-2-15c-6.06.367-14.99,0.919-18-2-0.33-1.333-.67-2.667-1-4l18-13c7.95-12.764-1.54-34.763,8-49q12.495-17.5,25-35,0.495-8.5,1-17l12-18q-0.495-8.5-1-17,10.5-14,21-28,0.495-12.5,1-25,10.5-15.5,21-31,4.5-20,9-40,8.505-10.5,17-21V232c3.17-10.924,11.99-15.53,13-31l6,2q0.495,14.5,1,29-4.005,5.5-8,11v23q-8.505,10.5-17,21c-6.32,12.2-1.72,25.363-1,38-8.63,6.642-13.8,14.822-14,30q0.495,6,1,12c-3.83,10.679-17.34,22.144-21,35-7.53,26.447,5.23,19.676-11,41,3.74,17.865,1.31,42.547-7,55q-5.505,5-11,10-0.495,12.5-1,25-6.495,9-13,18v25q-5.505,6-11,12c2.19,4.593,4.11,6.381,2,10q-4.005,8-8,16-2.505,18.5-5,37-6.495,7-13,14v32q-5.505,5.5-11,11v30q-7.995,18.5-16,37-7.005,27-14,54c-10.75-1.26-13.34-8.826-21-11l-17,2c-12.37-2.62-34.936-15.743-42-25l2-2,24-42q0.5-12.5,1-25,11.5-17.5,23-35c9.46-11.791,22.09-4.88,28-11q3-14,6-28l-14-2V640ZM881,223l6,2q3,14,6,28l12,17v18c4.331,11.709,15.888,17.669,19,33,5.76,28.378,2.444,111.5-9,130l-25,25-7,19-20,15q-2,7.5-4,15l-16,10c-5.012,4.011-3.962,11.952-8,17l-26,15c-0.346,19.372-10.243,23.335-13,37-0.086.426-.291,54.953,0,56l9,11q-1,14-2,28l11,12q2.5,9.5,5,19c9.636,16.976,30.26,21.41,35,45l-5,5c-30.222-3.254-37.4,7.15-61,12-14.874,3.056-6.866-11.086-28,5-20.1-9.849-16.428-27.416-24-50-2.517-7.506-11.4-9.9-14-16q-0.5-12-1-24c-6.858-17.378-21.351-17.766-5-45l5-1,3,6c-0.644,3.635-.4,3.027-2,5-4.643-.289-5.114.19-8,4l3,6,9,2c-3.217,5.057-5.758,8.536-7,16h7c9.954-6.437,17.41-12,19-27-59.3-74.732,16.944-130.185,63-167,16.924-13.529,30.168-35.145,43-53l30-20c15.787-23.349,8.387-63.33,23-83q-2.5-15.5-5-31c1.749-5.563,7.5-9.329,5-18v-1l-11-16V265C889.272,251.146,879.029,241.453,881,223ZM374,387c1.5,0.913,40.056,59.478,41,62q1,7.5,2,15l13,10,12,33,13,7,7,24c15.875,27.857,36,39.181,32,76h1c4.618-1.108,7.318.735,11,3v4l-10,3q0.5,5,1,10l9,2c-3.7,5.176-6.949,7.794-8,16l1,1h6l17-15c17.607,10.757,23.218,38.309,34,56,18.816,30.873,41.677,60.825,60,91q6,15.5,12,31l14,14c-7.684,10.277-56.264,41.629-71,33-14.743-40.5-34.773-77.654-50-115l-10-42-20-28-7-35-20-36q-11-32-22-64l-14-16-13-49C403.743,451.643,371.612,422.309,374,387ZM222,621l7,5-2,3h-4l-4-3Zm10,7c60.975,2.388,127.561,55.318,138,108,7.708,38.9-12.447,81.475,2,115l-2,2-7-2c-2.333,5.858-4.673,8.34-5,17h4c3.567-4.715,6.859-7.492,9-14l3,2q1,4.5,2,9l-18,15c0.192,8.725,2.965,11.4,8,15-2.211,3.652-3.383,5.909-2,11h1c7.766-.806,11.612-3.963,17-7,3.614,2.425,5.508,3.966,11,5q0.5-2.5,1-5c-2.089-5.2-3.887-7.947-8-11l-16,3c2.563-5.739,7.254-9.385,13-12l33,22c9.195,7.111,11.241,20,24,24,19.61,6.149,51.779-7.583,65,7-8.311,19.806-31.88,28.593-44,45l-8,14c-27.448.821-36.143-11.24-55-19l-27-7c-11.884-8.006-49.782-57.615-54-72-5.746-19.6,6.374-41.3,9-56,1.692-9.474-4.716-10.75-4-18q4.5-15.5,9-31-1-15.5-2-31c1.737-8.277,8.061-18.9,5-32-2.718-11.634-35.217-60.833-44-67-17.975-12.621-45.418-11.2-59-28Q231.5,629,232,628Zm1342,37,3,3h-4C1573.33,667,1573.67,666,1574,665Zm-5,13c1.33,1.333,2.67,2.667,4,4-2.86,6.894-8.69,12.133-11,18q-2.505,14-5,28c-15.13,35.365-44.02,50.225-74,71-6.3,4.365-8.95,15.777-17,18l-44-5-51,2c-6.33-1.254-10.23-6.745-15-8-7.49-1.971-9.81,4.081-15,5-16.73,2.965-31.75-6.5-46,2-15.73,9.386-56.68,52.5-63,70-7.1,19.654,6.74,52.337-9,65-0.67-.667-1.33-1.333-2-2-8.97-3.491-22.17-12.391-26-21q-1.995-6.5-4-13c-10.34-9.951-26.87-9.493-33-24-4.62-21.206,16.55-48.613,25-63,3.44-5.855,2.34-13.255,6-20l36-30q14.505-4,29-8l24-19c22.28-6.673,44.97,9.356,59,14l42,1c22.03,4.567,51.64,21.494,80,14,23.61-6.24,59.63-26.185,73-44C1545.87,714.529,1554.01,694.552,1569,678ZM426,1137c0.274-32.97,19.516-39.72,31-60q3-10.995,6-22,7.5-7.005,15-14-0.5-10.5-1-21,8.5-9.5,17-19c9.487-12.339,14.7-26.291,24-39l21-13,12-15,17-5c9.8-5.946,12.45-22.308,23-29,19.718-12.508,44.335-19.2,64-33,7.069-4.96,8.458-16.289,17-20,14.1-6.124,27.192,5.362,43,1l18-15c14.653-4.515,32.481-1.555,46-5,13.68-3.486,26.784-12.935,38-16l39,8,29-3,20,14c11.413,2.535,13.883-9,27-6l36,16c13.962,2.985,19.783-7.694,32-4q2.5,16.5,5,33l18-1c1.33,1,2.67,2,4,3-4.96,6.228-12.63,6.635-17,14q17,15.5,34,31h2c5.68-8.717,11.09-15.459,20-21-0.33-.667-0.67-1.333-1-2-9.25-3.058-24.42-4.789-30-12q1.995-9,4-18h4c9.35,10.571,28.32,10.658,37,22-2.42,8.618-4.03,14.812-2,24,0.67,0.333,1.33.667,2,1,7.41-4.33,10.28-12.115,14-20q7.005,3.5,14,7v4q-12.495,12.5-25,25c1.61,10.914,6.76,16.727,15,21,14.2-9.739,14.77-31.44,30-40,16.26,10.542,43.99,31.076,52,49l3,19q9.495,9,19,18,13.995,21.5,28,43c-4.51,9.49-10.77,15.24-23,17-3.04-4.75-5.53-6.59-11-9-6.79,1.4-7.03,4.11-15,5,1.7-8.58-5.45-14.3-3-19,0.67-1,1.33-2,2-3,4.96,2.14,8.74,3.22,15,2,0.33-2.33.67-4.67,1-7-3.57-4.34-5.27-11.38-9-16q-5.505-1-11-2c-5.25,4.26-8.05,10.2-15,10-0.33-.67-0.67-1.33-1-2,3.79-6.55,13.27-17.477,10-27q-2.505-3.5-5-7h-6c-0.67,1-1.33,2-2,3-5.91,13.149-15.32,17.055-22,29q4.005,6.5,8,13-4.5,4.995-9,10c13.14,15.53,42.74,15.77,55,32q3.495,10.5,7,21c3.33,0.67,6.67,1.33,10,2,5.67-7.52,6.39-13.71,11-24q8.505,7.995,17,16v4c-9.93,6.89-15.21,16.05-23,25,0.33,3.33.67,6.67,1,10,3,0.33,6,.67,9,1-4.29,12.01-6.12,27.53-3,42,4.89,0.58,5.38.7,9-1q3-7.005,6-14l14,14c2.33-.67,4.67-1.33,7-2,2.29-14.05,10.27-30.64,7-43-8.84-2.58-19.34-3.26-25-9,0.33-2.33.67-4.67,1-7,11.67-.83,20.43-3.57,32-3q4.5,24.99,9,50c0.74,7.81-3.74,15.94-1,24,8.3,24.44,29.82,50.06,23,88-3.89,21.64-12.94,34.89-17,60-5.41,33.44,1.12,65.69-10,91l-24,27-9,27-18,21c-16.62,27.89-20.18,60.57-46,79h-4c-10.28-16.26-51.86-66.07-43-95,6.06-19.79,22.22-31.27,26-56a62.863,62.863,0,0,0,22-10c-0.04-14.7.92-29.85,7-39l9-9q-0.495-9-1-18,1.5-19.005,3-38c-1.33-6.73-4.24-10.96-4-18l21-33c-4.83-20.27-20.74-28.37-23-50q4.005-8.505,8-17c-28.74-20.75-15.31-65.57-35-95q-16.005-12.495-32-25-4.995-13.005-10-26-10.995-7.005-22-14-9-16-18-32c-6.92-8.84-13.99-5.486-25-11q-8.505-8-17-16l-15,1c-6.2-3.416-5.82-11.462-11-15q-9.5-2.5-19-5l-22-16-43-1c-6.877-1.919-13.34-10.732-23-9-6.634,1.19-14.031,6.982-24,5l-42-22c-24.494-5.479-28.476,20.034-45,24-15.423,3.7-24.523-11.409-37-8-7.726,2.111-50.48,16.5-57,21l-17,20c-7.808,3.176-16.216-.771-23,3-0.061,7.458-1.408,14.277-4,19l-50,21c-3.6,18.42-12.114,15.52-20,27l-15,39q-15.5,14.505-31,29-1,9.495-2,19-10.5,12-21,24Q471.505,1137.995,426,1137Zm604-278,5,2v1l-6,3C1029.33,863,1029.67,861,1030,859Zm715,18v6q-18.495,15.5-37,31c-8.09,4.737-23.67,2.7-32,8l-21,19-22,4q-16.995,12.5-34,25l-31,7q-26.49,18-53,36-23.505,7-47,14l-26,23q-14.505,4.005-29,8c-32.17,12.98-63.94,36.13-96,52-15.89-9.63-11.45-32.04-21-48q-8.505-10.995-17-22c0.67-1,1.33-2,2-3,18.23-6.87,42.33-11.35,62-20l18-12q9.495,0.5,19,1,8.505-7,17-14l40-14,15,1c13.68-3.252,40.24-23.792,60-13,0.33,2.333.67,4.667,1,7-18.79.147-31.49,10.341-31,30,10.93-.84,11.14-9.42,19-11,12.67-2.549,16.57,2.677,29-5,0.86-6.663,2.88-13.445,7-17l10,3c0.67-.667,1.33-1.333,2-2q-4.005-5.5-8-11a36.18,36.18,0,0,1,6-15c19.35-1.685,22.53-13.482,36-18l33-3c6.19-2.908,8.05-10.074,17-12l23-1C1684.26,901.967,1706.48,877.513,1745,877Zm-613,51c-7.46,9.858-19.52,18.23-31,24-0.99,7.3-.47,10.629,5,14,14.69-2.69,17.68-14.248,27-22q5.505,4.5,11,9,5.505-3.5,11-7v-4C1148.84,935.749,1143.06,929.371,1132,928Zm63,134,4,4c-0.33.67-.67,1.33-1,2h-5C1193.67,1066,1194.33,1064,1195,1062Zm49,1c6.42,4.43,13.65,10.23,13,19C1250.39,1080.08,1245.41,1069.77,1244,1063Zm11,26,4,4c-1.33-.33-2.67-0.67-4-1v-3Zm7,77c-2.28,9.75-6.1,18.91-11,26-4.83-2.43-5.84-3.53-10-2q-3,5.505-6,11a29.566,29.566,0,0,0,15,10v4c-9.83,1.59-16.23,7.36-21,14,0.33,2,.67,4,1,6h1c10.64-4.04,15.61-3.85,29-6q4.005-6,8-12c2.67,0.33,5.33.67,8,1v-3c-5.6-17.2-2.1-26.4,1-41C1272.07,1170.5,1269.36,1167.42,1262,1166Zm162,37c23.79,1.96,118.71,39.53,128,52,4.97,6.67,6.17,18.6,8,28,7.17,0.02,9.85,1.48,14,4,0.67,2,1.33,4,2,6-19.58,4.22-18.78,27.17-5,37,8.67-3.7,11.59-9.48,18-15,6.77,0.35,10.73,1.84,12,8-1,1.67-2,3.33-3,5q-13.5,4.995-27,10-1.005,6-2,12c-1.67-.33-3.33-0.67-5-1-6.71-16-21.67-36.85-37-44q-12-4.005-24-8c-5.92-3.92-5.63-9.17-15-11-15.96-3.12-32.15,3.56-41,2-13.17-2.32-27.8-11.98-47-8-24.87,5.16-39.56,24.01-65,29l-3-3c1.18-32.99-15.77-67.82,5-95h1C1364.98,1212.13,1406.4,1215.56,1424,1203Zm177,134c7.55,2.46,7.13,11.57,13,14,5.52,2.29,9.71-3.71,14,2,7.83,13.21,10.98,26.7,20,38,11.23,14.07,18.78,7.32,35,15l16,16c13.72,10.06,46.6,20.63,65,23,15.73,2.02,30.03-13.9,48-9l12,6v4c-25.08,4.23-57.77,18.25-87,14-18-2.62-28.91-16.36-44-22l-34-3c-26.03-9.91-75.76-57.72-88-82l1-1C1587.5,1352.36,1594.77,1345.71,1601,1337Zm-298,79c29.68,14.62,52.62,44.91,78,65q18,13.005,36,26,1.995,9,4,18,10.995,13.5,22,27h4q4.5-7.005,9-14l15,15q21.495,15,43,30,33,29.49,66,59c21.37,16.38,49.87,27.47,66,49-0.33,1.33-.67,2.67-1,4h-1c-6.27-3.21-7.88-8.43-13-12q-19.005-9-38-18-4.5-5.505-9-11l-15-3q-10.5-9.495-21-19c-23.65-14.55-46.5-27.48-69-41q-12.495-4.005-25-8-12.495-10.005-25-20-13.5-4.995-27-10-21.495-16.5-43-33-13.005-4.5-26-9-20.505-15-41-30-10.005-3.495-20-7c-2.07-1.96-1.04-.37-2-4C1278.14,1449.55,1291.13,1432.88,1303,1416Zm538,24c2,0.33,4,.67,6,1-0.33,2.33-.67,4.67-1,7h-4l-4-4C1839,1442.67,1840,1441.33,1841,1440Zm-727,165,2,2c-1.33,1-2.67,2-4,3C1112.67,1608.33,1113.33,1606.67,1114,1605Z"/>
</svg>
